<mxfile host="65bd71144e">
    <diagram id="nwnLDxDZf4cikhJsDPAF" name="ページ1">
        <mxGraphModel dx="816" dy="843" grid="1" gridSize="10" guides="1" tooltips="1" connect="1" arrows="1" fold="1" page="1" pageScale="1" pageWidth="827" pageHeight="1169" math="0" shadow="0">
            <root>
                <mxCell id="0"/>
                <mxCell id="1" parent="0"/>
                <mxCell id="2" value="" style="whiteSpace=wrap;html=1;aspect=fixed;fillColor=none;verticalAlign=middle;horizontal=1;shadow=0;glass=0;rounded=0;labelBorderColor=none;" vertex="1" parent="1">
                    <mxGeometry x="10" y="10" width="390" height="390" as="geometry"/>
                </mxCell>
                <mxCell id="11" value="リバーシで学ぶアプリケーション入門" style="rounded=0;whiteSpace=wrap;html=1;shadow=0;glass=0;labelBorderColor=none;sketch=0;fillColor=none;" vertex="1" parent="1">
                    <mxGeometry x="10" y="10" width="390" height="60" as="geometry"/>
                </mxCell>
                <mxCell id="12" value="対戦する" style="rounded=1;whiteSpace=wrap;html=1;shadow=0;glass=0;labelBorderColor=none;sketch=0;fillColor=none;" vertex="1" parent="1">
                    <mxGeometry x="157.5" y="130" width="95" height="30" as="geometry"/>
                </mxCell>
                <mxCell id="14" value="過去の対戦結果" style="rounded=0;whiteSpace=wrap;html=1;shadow=0;glass=0;labelBorderColor=none;sketch=0;fillColor=none;" vertex="1" parent="1">
                    <mxGeometry x="112.5" y="220" width="185" height="110" as="geometry"/>
                </mxCell>
                <mxCell id="15" value="" style="whiteSpace=wrap;html=1;aspect=fixed;fillColor=none;verticalAlign=middle;horizontal=1;shadow=0;glass=0;rounded=0;labelBorderColor=none;" vertex="1" parent="1">
                    <mxGeometry x="437" y="10" width="390" height="390" as="geometry"/>
                </mxCell>
                <mxCell id="16" value="リバーシで学ぶアプリケーション入門" style="rounded=0;whiteSpace=wrap;html=1;shadow=0;glass=0;labelBorderColor=none;sketch=0;fillColor=none;" vertex="1" parent="1">
                    <mxGeometry x="437" y="10" width="390" height="60" as="geometry"/>
                </mxCell>
                <mxCell id="17" value="白の番はスキップです" style="rounded=1;whiteSpace=wrap;html=1;shadow=0;glass=0;labelBorderColor=none;sketch=0;fillColor=none;" vertex="1" parent="1">
                    <mxGeometry x="554.25" y="90" width="155.5" height="40" as="geometry"/>
                </mxCell>
                <mxCell id="18" value="盤面" style="rounded=0;whiteSpace=wrap;html=1;shadow=0;glass=0;labelBorderColor=none;sketch=0;fillColor=none;" vertex="1" parent="1">
                    <mxGeometry x="539.5" y="160" width="185" height="170" as="geometry"/>
                </mxCell>
                <mxCell id="19" value="次は黒の番です" style="text;html=1;strokeColor=none;fillColor=none;align=center;verticalAlign=middle;whiteSpace=wrap;rounded=0;shadow=0;glass=0;labelBorderColor=none;sketch=0;" vertex="1" parent="1">
                    <mxGeometry x="578" y="350" width="108" height="30" as="geometry"/>
                </mxCell>
            </root>
        </mxGraphModel>
    </diagram>
</mxfile>
